<svg xmlns="http://www.w3.org/2000/svg" xmlns:xlink="http://www.w3.org/1999/xlink" viewBox="0 0 616.62 167.41"><defs><linearGradient id="Безымянный_градиент_11" x1="98.76" y1="109.57" x2="-1.1" y2="165.44" gradientUnits="userSpaceOnUse"><stop offset="0" stop-color="#f96500"/><stop offset="0.05" stop-color="#fa6c00"/><stop offset="0.31" stop-color="#fc8b00"/><stop offset="0.55" stop-color="#fea200"/><stop offset="0.79" stop-color="#ffaf00"/><stop offset="1" stop-color="#ffb400"/></linearGradient></defs><title>white-orange</title><g id="Слой_2" data-name="Слой 2"><g id="logo"><path class="cls-1" d="M64.44,167.41,32.22,111.6l-8,13.85a9.32,9.32,0,0,0,0,9.51l16,27.69a9.29,9.29,0,0,0,8.24,4.76Zm112.88,0a9.29,9.29,0,0,1-8.24-4.76Q136.85,106.84,104.62,51l0-.06A9.3,9.3,0,0,0,88.51,60.3l61.84,107.11H91.4a9.3,9.3,0,0,1-8.22-4.74L45.7,97.76a9.32,9.32,0,0,1,0-9.51l2.63-4.55,5.37-9.3L94,144.26A9.3,9.3,0,0,0,110.17,135l0-.07L67,60.24a9.23,9.23,0,0,1,.18-9.18L96.65,0,193.3,167.41Zm-155.84,0-10.74-18.6L0,167.41Z"/><g id="Adstart"><path class="cls-2" d="M208.89,69.65l-4.06,9.21a5.63,5.63,0,0,1-5.25,3.43h-6.27l23-52.16a5.62,5.62,0,0,1,5.24-3.42h2.54a5.65,5.65,0,0,1,5.25,3.42l23,52.16H246a5.64,5.64,0,0,1-5.25-3.43l-4.05-9.21Zm24-8.67-10.1-22.9L212.7,61Z"/><path class="cls-2" d="M286.89,26.71q14.94,0,23,7.28t8,20.23q0,13-7.8,20.51t-23.85,7.56H267.81V26.71Zm21.55,27.75q0-19.08-21.87-19.08h-9.38V73.46H287.6q10.11,0,15.47-4.81T308.44,54.46Z"/><path class="cls-2" d="M354.59,34a12.2,12.2,0,0,0-6.71,1.67,5.57,5.57,0,0,0-2.63,5,5.87,5.87,0,0,0,2.63,5.17c1.74,1.2,5.47,2.48,11.16,3.86s10,3.31,12.88,5.8,4.34,6.16,4.34,11a14.59,14.59,0,0,1-5.49,11.81q-5.49,4.53-14.39,4.53a33.78,33.78,0,0,1-23.13-9l2.38-2.87a5.71,5.71,0,0,1,7.54-1.14,24.41,24.41,0,0,0,13.45,4.25,12,12,0,0,0,7.2-2,6.11,6.11,0,0,0,2.66-5.17,5.83,5.83,0,0,0-2.51-5q-2.5-1.78-8.62-3.26a77.88,77.88,0,0,1-9.3-2.7,21.09,21.09,0,0,1-5.65-3.22q-4.92-3.73-4.93-11.45t5.61-11.89A22.57,22.57,0,0,1,355,25.36a33.19,33.19,0,0,1,10.58,1.75A27.85,27.85,0,0,1,374.59,32l-1.86,2.63a5.69,5.69,0,0,1-7.13,1.87,26.17,26.17,0,0,0-2.7-1.08A25.58,25.58,0,0,0,354.59,34Z"/><path class="cls-2" d="M416.65,35.3V76.55a5.74,5.74,0,0,1-5.73,5.74h-3.65v-47H396.15a5.74,5.74,0,0,1-5.73-5.74V26.71h43.09v2.85a5.75,5.75,0,0,1-5.74,5.74Z"/><path class="cls-2" d="M558.26,44.76q0,13.76-12,17.33l14.54,20.2h-9a5.58,5.58,0,0,1-4.68-2.41L535.6,63.6H523.28V76.55a5.75,5.75,0,0,1-5.74,5.74H513.9V26.71h20.67q12.72,0,18.21,4.3t5.48,13.75ZM535,55.1q7.95,0,10.81-2.47t2.86-7.91q0-5.44-2.94-7.47t-10.5-2H523.28V55.1Z"/><path class="cls-2" d="M599.77,35.3V76.55A5.75,5.75,0,0,1,594,82.29h-3.64v-47H579.27a5.75,5.75,0,0,1-5.74-5.74V26.71h43.09v2.85a5.74,5.74,0,0,1-5.73,5.74Z"/><path class="cls-2" d="M294.47,141.26h-2V111.49h5.91a3,3,0,0,1,2.77,1.74l8.15,17,8.15-17a3,3,0,0,1,2.76-1.74h5.87v29.77h-2a3.08,3.08,0,0,1-3.07-3.07V118l-9.82,19.53a2,2,0,0,1-1.83,1.12h-.29a2,2,0,0,1-1.83-1.13L297.54,118v20.18A3.08,3.08,0,0,1,294.47,141.26Z"/><path class="cls-2" d="M375.57,111.49v1.66a3.08,3.08,0,0,1-3.07,3.07H359.68v7.88H374v4.47H359.68v8H373a3.08,3.08,0,0,1,3.07,3.08v1.65H354.66V111.49Z"/><path class="cls-2" d="M413,111.49q8,0,12.31,3.9t4.31,10.84q0,6.95-4.18,11t-12.78,4h-9.88V111.49Zm11.55,14.86q0-10.21-11.72-10.22h-5v20.4h5.58c3.6,0,6.37-.85,8.28-2.57S424.56,129.71,424.56,126.35Z"/><path class="cls-2" d="M456.38,111.49h1.95a3.08,3.08,0,0,1,3.07,3.07v26.7h-1.95a3.08,3.08,0,0,1-3.07-3.07Z"/><path class="cls-2" d="M494.16,134.49,492,139.43a3,3,0,0,1-2.81,1.83h-3.37l12.32-27.94a3,3,0,0,1,2.81-1.83h1.36a3,3,0,0,1,2.81,1.83l12.31,27.94h-3.37a3,3,0,0,1-2.81-1.83l-2.17-4.94ZM507,129.85l-5.4-12.27-5.41,12.27Z"/><path class="cls-2" d="M455,69.65l-4.06,9.21a5.63,5.63,0,0,1-5.25,3.43h-6.28l23-52.16a5.62,5.62,0,0,1,5.24-3.42h2.54a5.65,5.65,0,0,1,5.25,3.42l23,52.16h-6.28a5.64,5.64,0,0,1-5.25-3.43l-4.06-9.21ZM479,61l-10.1-22.9L458.79,61Z"/></g></g></g></svg>